<svg width="512" height="512" xmlns="http://www.w3.org/2000/svg">

 <g>
  <title>background</title>
  <rect fill="#e5e5e5" id="canvas_background" height="514" width="514" y="-1" x="-1"/>
 </g>
 <g>
  <title>Layer 1</title>
  <path fill="#54c2f1" id="svg_1" d="m399.7,287.2l0,-35.1c0,-18.7 -16.1,-33.9 -35.9,-33.9l-215.6,0c-19.9,0 -35.9,15.2 -35.9,33.9l0,156c0,18.7 16.1,33.9 35.9,33.9l215.6,0c19.8,0 35.9,-15.2 35.9,-33.9l0,-10.7l-47,0l0,-18.8l47,0l0,-25.8l-47,0l0,-18.8l47,0l0,-28l-47,0l0,-18.8l47,0zm-131.1,61.1l0,23.5c0,5.5 -5.6,9.9 -12.6,9.9c-6.9,0 -12.6,-4.4 -12.6,-9.9l0,-23.5c-9.7,-4.7 -16.5,-14.6 -16.5,-26.2c0,-16 13,-29 29,-29c16.1,0 29.1,13 29.1,29c0,11.6 -6.7,21.5 -16.4,26.2z" class="st0"/>
  <path fill="#3a5765" id="svg_2" d="m363.8,447.1l-215.6,0c-22.6,0 -40.9,-17.5 -40.9,-38.9l0,-156c0,-21.5 18.4,-38.9 40.9,-38.9l215.6,0c22.6,0 40.9,17.5 40.9,38.9l0,40.1l-47,0l0,8.8l47,0l0,38.1l-47,0l0,8.8l47,0l0,35.8l-47,0l0,8.8l47,0l0,15.7c0,21.3 -18.3,38.8 -40.9,38.8zm-215.6,-223.9c-17.1,0 -30.9,13 -30.9,28.9l0,156c0,15.9 13.9,28.9 30.9,28.9l215.6,0c17.1,0 30.9,-13 30.9,-28.9l0,-5.7l-47,0l0,-28.8l47,0l0,-15.8l-47,0l0,-28.8l47,0l0,-18l-47,0l0,-28.8l47,0l0,-30.1c0,-16 -13.9,-28.9 -30.9,-28.9l-215.6,0zm107.8,163.6c-9.7,0 -17.6,-6.7 -17.6,-14.9l0,-20.5c-10.2,-6.2 -16.5,-17 -16.5,-29.1c0,-18.8 15.3,-34 34,-34c18.8,0 34.1,15.3 34.1,34c0,12.1 -6.2,23 -16.5,29.1l0,20.5c0.1,8.2 -7.8,14.9 -17.5,14.9zm0,-88.7c-13.3,0 -24,10.8 -24,24c0,9.3 5.2,17.6 13.6,21.7l2.8,1.4l0,26.7c0,2.3 3.1,4.9 7.6,4.9c4.5,0 7.6,-2.6 7.6,-4.9l0,-26.7l2.8,-1.4c8.4,-4.1 13.6,-12.4 13.6,-21.7c0,-13.2 -10.7,-24 -24,-24z" class="st1"/>
  <path fill="#ed6c30" id="svg_3" d="m181.1,156.3c0,-31.3 25.3,-56.6 56.6,-56.6l36.6,0c31.2,0 56.6,25.3 56.6,56.6l0,39.7l40.1,0l0,-51.6c0,-42.8 -34.7,-77.5 -77.4,-77.5l-75.1,0c-42.7,0 -77.4,34.7 -77.4,77.5l0,51.6l40.1,0l0,-39.7l-0.1,0z" class="st2"/>
  <path fill="#3a5765" id="svg_4" d="m376,201l-50.1,0l0,-44.6c0,-28.4 -23.1,-51.6 -51.6,-51.6l-36.6,0c-28.4,0 -51.6,23.1 -51.6,51.6l0,44.6l-50.1,0l0,-56.6c0,-45.5 37,-82.5 82.4,-82.5l75.1,0c45.5,0 82.4,37 82.4,82.5l0,56.6l0.1,0zm-40.1,-10l30.1,0l0,-46.6c0,-40 -32.5,-72.5 -72.4,-72.5l-75.1,0c-39.9,0 -72.4,32.5 -72.4,72.5l0,46.6l30.1,0l0,-34.6c0,-34 27.6,-61.6 61.6,-61.6l36.6,0c34,0 61.6,27.6 61.6,61.6l0,34.6l-0.1,0z" class="st1"/>
  <polygon fill="#3a5765" id="svg_6" points="25,6.4 18.3,6.4 7.1,12.7 10.1,20.7 16.1,17.2 16.1,33.9 8.3,33.9 8.3,42.6 31.7,42.6 31.7,33.9    25,33.9  " class="st1"/>
  <path fill="#3a5765" id="svg_7" d="m79.1,10.5c-1.2,-1.6 -2.6,-2.7 -4.3,-3.5c-1.6,-0.6 -3.3,-1 -5.2,-1c-2.2,0 -4.1,0.4 -5.8,1.3c-1.7,0.9 -3.2,2.2 -4.4,3.8c-1.2,1.6 -2.1,3.6 -2.7,5.9c-0.6,2.3 -0.9,4.8 -0.9,7.7c0,3.1 0.3,5.8 0.9,8.1c0.6,2.3 1.5,4.3 2.7,5.8c1.2,1.6 2.6,2.7 4.3,3.5c1.6,0.7 3.4,1.1 5.2,1.1c2.2,0 4.1,-0.4 5.8,-1.3c1.7,-0.9 3.2,-2.2 4.4,-3.8c1.2,-1.6 2.1,-3.6 2.7,-5.9c0.6,-2.3 0.9,-4.8 0.9,-7.7c0,-3.1 -0.3,-5.8 -0.9,-8.1c-0.7,-2.4 -1.6,-4.3 -2.7,-5.9zm-9.9,24.5c-0.9,0 -1.6,-0.3 -2.2,-0.8c-0.5,-0.4 -0.9,-1 -1.2,-1.8l8.1,-6.3c-0.1,1.3 -0.2,2.5 -0.4,3.5c-0.3,1.3 -0.7,2.4 -1.1,3.2c-0.4,0.7 -0.9,1.3 -1.5,1.7c-0.5,0.3 -1.1,0.5 -1.7,0.5zm-1.6,-20.3c0.5,-0.3 1.1,-0.5 1.7,-0.5c0.9,0 1.6,0.3 2.2,0.8c0.5,0.4 0.9,1.1 1.3,1.9l-8.2,6.3c0.1,-1.4 0.2,-2.6 0.4,-3.6c0.3,-1.3 0.7,-2.4 1.1,-3.2c0.4,-0.8 0.9,-1.4 1.5,-1.7z" class="st1"/>
  <path fill="#3a5765" id="svg_8" d="m134.9,10.5c-1.2,-1.6 -2.6,-2.7 -4.3,-3.5c-1.6,-0.6 -3.4,-1 -5.2,-1c-2.2,0 -4.1,0.4 -5.8,1.3c-1.7,0.9 -3.2,2.2 -4.4,3.8c-1.2,1.6 -2.1,3.6 -2.7,5.9c-0.6,2.3 -0.9,4.8 -0.9,7.7c0,3.1 0.3,5.8 0.9,8.1c0.6,2.3 1.5,4.3 2.7,5.8c1.2,1.6 2.6,2.7 4.3,3.5c1.6,0.7 3.4,1.1 5.2,1.1c2.2,0 4.1,-0.4 5.8,-1.3c1.7,-0.9 3.2,-2.2 4.4,-3.8c1.2,-1.6 2.1,-3.6 2.7,-5.9c0.6,-2.3 0.9,-4.8 0.9,-7.7c0,-3.1 -0.3,-5.8 -0.9,-8.1c-0.7,-2.4 -1.6,-4.3 -2.7,-5.9zm-9.9,24.5c-0.9,0 -1.6,-0.3 -2.2,-0.8c-0.5,-0.4 -0.9,-1 -1.2,-1.8l8.1,-6.3c-0.1,1.3 -0.2,2.5 -0.4,3.5c-0.3,1.3 -0.7,2.4 -1.1,3.2c-0.4,0.7 -0.9,1.3 -1.5,1.7c-0.5,0.3 -1.1,0.5 -1.7,0.5zm-1.7,-20.3c0.5,-0.3 1.1,-0.5 1.7,-0.5c0.9,0 1.6,0.3 2.2,0.8c0.5,0.4 0.9,1.1 1.3,1.9l-8.2,6.3c0.1,-1.4 0.2,-2.6 0.4,-3.6c0.3,-1.3 0.7,-2.4 1.1,-3.2c0.5,-0.8 1,-1.4 1.5,-1.7z" class="st1"/>
  <polygon fill="#3a5765" id="svg_9" points="183.3,6.4 176.6,6.4 165.4,12.7 168.4,20.7 174.5,17.2 174.5,33.9 166.7,33.9 166.7,42.6 190,42.6    190,33.9 183.3,33.9  " class="st1"/>
  <path fill="#3a5765" id="svg_10" d="m240.4,10.5c-1.2,-1.6 -2.6,-2.7 -4.3,-3.5c-1.6,-0.7 -3.4,-1.1 -5.2,-1.1c-2.2,0 -4.1,0.4 -5.8,1.3c-1.7,0.9 -3.2,2.2 -4.4,3.8c-1.2,1.6 -2.1,3.6 -2.7,5.9c-0.6,2.3 -0.9,4.8 -0.9,7.7c0,3.1 0.3,5.8 0.9,8.1c0.6,2.3 1.5,4.3 2.7,5.8c1.2,1.6 2.6,2.7 4.3,3.5c1.6,0.7 3.4,1.1 5.2,1.1c2.2,0 4.1,-0.4 5.8,-1.3c1.7,-0.9 3.2,-2.2 4.4,-3.8c1.2,-1.6 2.1,-3.6 2.7,-5.9c0.6,-2.3 0.9,-4.8 0.9,-7.7c0,-3.1 -0.3,-5.8 -0.9,-8.1c-0.6,-2.3 -1.5,-4.2 -2.7,-5.8zm-9.8,24.5c-0.9,0 -1.6,-0.3 -2.2,-0.8c-0.5,-0.4 -0.9,-1 -1.2,-1.8l8.1,-6.3c-0.1,1.3 -0.2,2.5 -0.4,3.5c-0.3,1.3 -0.7,2.4 -1.1,3.2c-0.4,0.7 -0.9,1.3 -1.5,1.7c-0.6,0.3 -1.1,0.5 -1.7,0.5zm-1.7,-20.3c0.5,-0.3 1.1,-0.5 1.7,-0.5c0.9,0 1.6,0.3 2.2,0.8c0.5,0.4 0.9,1.1 1.3,1.9l-8.2,6.3c0.1,-1.4 0.2,-2.6 0.4,-3.6c0.3,-1.3 0.7,-2.4 1.1,-3.2c0.5,-0.8 1,-1.4 1.5,-1.7z" class="st1"/>
  <polygon fill="#3a5765" id="svg_11" points="288.9,6.4 282.2,6.4 270.9,12.7 274,20.7 280,17.2 280,33.9 272.2,33.9 272.2,42.6 295.6,42.6    295.6,33.9 288.9,33.9  " class="st1"/>
  <polygon fill="#3a5765" id="svg_12" points="341.7,6.4 335,6.4 323.7,12.7 326.7,20.7 332.8,17.2 332.8,33.9 325,33.9 325,42.6 348.4,42.6    348.4,33.9 341.7,33.9  " class="st1"/>
  <path fill="#3a5765" id="svg_13" d="m398.7,10.5c-1.2,-1.6 -2.6,-2.7 -4.3,-3.5c-1.6,-0.7 -3.4,-1.1 -5.2,-1.1c-2.2,0 -4.1,0.4 -5.8,1.3c-1.7,0.9 -3.2,2.2 -4.4,3.8c-1.2,1.6 -2.1,3.6 -2.7,5.9c-0.6,2.3 -0.9,4.8 -0.9,7.7c0,3.1 0.3,5.8 0.9,8.1c0.6,2.3 1.5,4.3 2.7,5.8c1.2,1.6 2.6,2.7 4.3,3.5c1.6,0.7 3.4,1.1 5.2,1.1c2.2,0 4.1,-0.4 5.8,-1.3c1.7,-0.9 3.2,-2.2 4.4,-3.8c1.2,-1.6 2.1,-3.6 2.7,-5.9c0.6,-2.3 0.9,-4.8 0.9,-7.7c0,-3.1 -0.3,-5.8 -0.9,-8.1c-0.6,-2.3 -1.5,-4.2 -2.7,-5.8zm-9.8,24.5c-0.9,0 -1.6,-0.3 -2.2,-0.8c-0.5,-0.4 -0.9,-1 -1.2,-1.8l8.1,-6.3c-0.1,1.3 -0.2,2.5 -0.4,3.5c-0.3,1.3 -0.7,2.4 -1.1,3.2c-0.4,0.7 -0.9,1.3 -1.5,1.7c-0.5,0.3 -1.1,0.5 -1.7,0.5zm-1.7,-20.3c0.5,-0.3 1.1,-0.5 1.7,-0.5c0.9,0 1.6,0.3 2.2,0.8c0.5,0.4 0.9,1.1 1.3,1.9l-8.2,6.3c0.1,-1.4 0.2,-2.6 0.4,-3.6c0.3,-1.3 0.7,-2.4 1.1,-3.2c0.5,-0.8 1,-1.4 1.5,-1.7z" class="st1"/>
  <polygon fill="#3a5765" id="svg_14" points="449.2,33.9 449.2,6.4 442.5,6.4 431.3,12.7 434.3,20.7 440.3,17.2 440.3,33.9 432.5,33.9 432.5,42.6    455.9,42.6 455.9,33.9  " class="st1"/>
  <path fill="#3a5765" id="svg_15" d="m29.3,88.7c-1.2,-1.6 -2.6,-2.7 -4.3,-3.5c-1.6,-0.7 -3.4,-1.1 -5.2,-1.1c-2.2,0 -4.1,0.4 -5.8,1.3c-1.7,0.9 -3.2,2.2 -4.4,3.8c-1.2,1.6 -2.1,3.6 -2.7,5.9c-0.6,2.4 -0.9,4.9 -0.9,7.8c0,3.1 0.3,5.8 0.9,8.1c0.6,2.3 1.5,4.3 2.7,5.8c1.2,1.6 2.6,2.7 4.3,3.5c1.6,0.7 3.4,1.1 5.2,1.1c2.2,0 4.1,-0.4 5.8,-1.3c1.7,-0.9 3.2,-2.2 4.4,-3.8c1.2,-1.6 2.1,-3.6 2.7,-5.9c0.6,-2.3 0.9,-4.8 0.9,-7.7c0,-3.1 -0.3,-5.8 -0.9,-8.1c-0.7,-2.5 -1.6,-4.4 -2.7,-5.9zm-9.8,24.4c-0.9,0 -1.6,-0.3 -2.2,-0.8c-0.5,-0.4 -0.9,-1 -1.2,-1.8l8.1,-6.3c-0.1,1.3 -0.2,2.5 -0.4,3.5c-0.3,1.3 -0.7,2.4 -1.1,3.2c-0.4,0.7 -0.9,1.3 -1.5,1.7c-0.6,0.3 -1.1,0.5 -1.7,0.5zm-1.7,-20.3c0.5,-0.3 1.1,-0.5 1.7,-0.5c0.9,0 1.6,0.3 2.2,0.8c0.5,0.4 0.9,1.1 1.3,1.9l-8.2,6.3c0.1,-1.4 0.2,-2.6 0.4,-3.6c0.3,-1.3 0.7,-2.4 1.1,-3.2c0.5,-0.8 0.9,-1.3 1.5,-1.7z" class="st1"/>
  <path fill="#3a5765" id="svg_16" d="m79.1,88.7c-1.2,-1.6 -2.6,-2.7 -4.3,-3.5c-1.6,-0.7 -3.4,-1.1 -5.2,-1.1c-2.2,0 -4.1,0.4 -5.8,1.3c-1.7,0.9 -3.2,2.2 -4.4,3.8c-1.2,1.6 -2.1,3.6 -2.7,5.9c-0.6,2.3 -0.9,4.8 -0.9,7.7c0,3.1 0.3,5.8 0.9,8.1c0.6,2.3 1.5,4.3 2.7,5.8c1.2,1.6 2.6,2.7 4.3,3.5c1.6,0.7 3.4,1.1 5.2,1.1c2.2,0 4.1,-0.4 5.8,-1.3c1.7,-0.9 3.2,-2.2 4.4,-3.8c1.2,-1.6 2.1,-3.6 2.7,-5.9c0.6,-2.3 0.9,-4.8 0.9,-7.7c0,-3.1 -0.3,-5.8 -0.9,-8.1c-0.7,-2.4 -1.6,-4.3 -2.7,-5.8zm-9.9,24.4c-0.9,0 -1.6,-0.3 -2.2,-0.8c-0.5,-0.4 -0.9,-1 -1.2,-1.8l8.1,-6.3c-0.1,1.3 -0.2,2.5 -0.4,3.5c-0.3,1.3 -0.7,2.4 -1.1,3.2c-0.4,0.7 -0.9,1.3 -1.5,1.7c-0.5,0.3 -1.1,0.5 -1.7,0.5zm-1.6,-20.3c0.5,-0.3 1.1,-0.5 1.7,-0.5c0.9,0 1.6,0.3 2.2,0.8c0.5,0.4 0.9,1.1 1.3,1.9l-8.2,6.3c0.1,-1.4 0.2,-2.6 0.4,-3.6c0.3,-1.3 0.7,-2.4 1.1,-3.2c0.4,-0.8 0.9,-1.3 1.5,-1.7z" class="st1"/>
  <path fill="#3a5765" id="svg_17" d="m128.9,88.7c-1.2,-1.6 -2.6,-2.7 -4.3,-3.5c-1.6,-0.7 -3.4,-1.1 -5.2,-1.1c-2.2,0 -4.1,0.4 -5.8,1.3c-1.7,0.9 -3.2,2.2 -4.4,3.8c-1.2,1.6 -2.1,3.6 -2.7,5.9c-0.6,2.3 -0.9,4.8 -0.9,7.7c0,3.1 0.3,5.8 0.9,8.1c0.6,2.3 1.5,4.3 2.7,5.8c1.2,1.6 2.6,2.7 4.3,3.5c1.6,0.7 3.4,1.1 5.2,1.1c2.2,0 4.1,-0.4 5.8,-1.3c1.7,-0.9 3.2,-2.2 4.4,-3.8c1.2,-1.6 2.1,-3.6 2.7,-5.9c0.6,-2.3 0.9,-4.8 0.9,-7.7c0,-3.1 -0.3,-5.8 -0.9,-8.1c-0.7,-2.4 -1.6,-4.3 -2.7,-5.8zm-9.9,24.4c-0.9,0 -1.6,-0.3 -2.2,-0.8c-0.5,-0.4 -0.9,-1 -1.2,-1.8l8.1,-6.3c-0.1,1.3 -0.2,2.5 -0.4,3.5c-0.3,1.3 -0.7,2.4 -1.1,3.2c-0.4,0.7 -0.9,1.3 -1.5,1.7c-0.5,0.3 -1.1,0.5 -1.7,0.5zm-1.7,-20.3c0.5,-0.3 1.1,-0.5 1.7,-0.5c0.9,0 1.6,0.3 2.2,0.8c0.5,0.4 0.9,1.1 1.3,1.9l-8.2,6.3c0.1,-1.4 0.2,-2.6 0.4,-3.6c0.3,-1.3 0.7,-2.4 1.1,-3.2c0.5,-0.8 1,-1.3 1.5,-1.7z" class="st1"/>
  <path fill="#3a5765" id="svg_18" d="m404.7,88.7c-1.2,-1.6 -2.6,-2.7 -4.3,-3.5c-1.6,-0.7 -3.4,-1.1 -5.2,-1.1c-2.2,0 -4.1,0.4 -5.8,1.3c-1.7,0.9 -3.2,2.2 -4.4,3.8c-1.2,1.6 -2.1,3.6 -2.7,5.9c-0.6,2.3 -0.9,4.8 -0.9,7.7c0,3.1 0.3,5.8 0.9,8.1c0.6,2.3 1.5,4.3 2.7,5.8c1.2,1.6 2.6,2.7 4.3,3.5c1.6,0.7 3.4,1.1 5.2,1.1c2.2,0 4.1,-0.4 5.8,-1.3c1.7,-0.9 3.2,-2.2 4.4,-3.8c1.2,-1.6 2.1,-3.6 2.7,-5.9c0.6,-2.3 0.9,-4.8 0.9,-7.7c0,-3.1 -0.3,-5.8 -0.9,-8.1c-0.7,-2.4 -1.6,-4.3 -2.7,-5.8zm-9.9,24.4c-0.9,0 -1.6,-0.3 -2.2,-0.8c-0.5,-0.4 -0.9,-1 -1.2,-1.8l8.1,-6.3c-0.1,1.3 -0.2,2.5 -0.4,3.5c-0.3,1.3 -0.7,2.4 -1.1,3.2c-0.4,0.7 -0.9,1.3 -1.5,1.7c-0.5,0.3 -1.1,0.5 -1.7,0.5zm-1.7,-20.3c0.5,-0.3 1.1,-0.5 1.7,-0.5c0.9,0 1.6,0.3 2.2,0.8c0.5,0.4 0.9,1.1 1.3,1.9l-8.2,6.3c0.1,-1.4 0.2,-2.6 0.4,-3.6c0.3,-1.3 0.7,-2.4 1.1,-3.2c0.5,-0.8 1,-1.3 1.5,-1.7z" class="st1"/>
  <path fill="#3a5765" id="svg_19" d="m456.2,94.5c-0.6,-2.3 -1.5,-4.3 -2.7,-5.8c-1.2,-1.6 -2.6,-2.7 -4.3,-3.5c-1.6,-0.7 -3.4,-1.1 -5.2,-1.1c-2.2,0 -4.1,0.4 -5.8,1.3c-1.7,0.9 -3.2,2.2 -4.4,3.8c-1.2,1.6 -2.1,3.6 -2.7,5.9c-0.6,2.3 -0.9,4.8 -0.9,7.7c0,3.1 0.3,5.8 0.9,8.1c0.6,2.3 1.5,4.3 2.7,5.8c1.2,1.6 2.6,2.7 4.3,3.5c1.6,0.7 3.4,1.1 5.2,1.1c2.2,0 4.1,-0.4 5.8,-1.3c1.7,-0.9 3.2,-2.2 4.4,-3.8c1.2,-1.6 2.1,-3.6 2.7,-5.9c0.6,-2.3 0.9,-4.8 0.9,-7.7c0,-3.1 -0.3,-5.9 -0.9,-8.1zm-12.5,18.6c-0.9,0 -1.6,-0.3 -2.2,-0.8c-0.5,-0.4 -0.9,-1 -1.2,-1.8l8.1,-6.3c-0.1,1.3 -0.2,2.5 -0.4,3.5c-0.3,1.3 -0.7,2.4 -1.1,3.2c-0.4,0.7 -0.9,1.3 -1.5,1.7c-0.6,0.3 -1.1,0.5 -1.7,0.5zm-1.7,-20.3c0.5,-0.3 1.1,-0.5 1.7,-0.5c0.9,0 1.6,0.3 2.2,0.8c0.5,0.4 0.9,1.1 1.3,1.9l-8.2,6.3c0.1,-1.4 0.2,-2.6 0.4,-3.6c0.3,-1.3 0.7,-2.4 1.1,-3.2c0.5,-0.8 1,-1.3 1.5,-1.7z" class="st1"/>
  <polygon fill="#3a5765" id="svg_20" points="25,160.6 18.3,160.6 7.1,167 10.1,175 16.1,171.4 16.1,188.2 8.3,188.2 8.3,196.9 31.7,196.9    31.7,188.2 25,188.2  " class="st1"/>
  <path fill="#3a5765" id="svg_21" d="m79.1,164.8c-1.2,-1.6 -2.6,-2.7 -4.3,-3.5c-1.6,-0.7 -3.4,-1.1 -5.2,-1.1c-2.2,0 -4.1,0.4 -5.8,1.3c-1.7,0.9 -3.2,2.2 -4.4,3.8c-1.2,1.6 -2.1,3.6 -2.7,5.9c-0.6,2.3 -0.9,4.8 -0.9,7.7c0,3.1 0.3,5.8 0.9,8.1c0.6,2.3 1.5,4.3 2.7,5.8c1.2,1.6 2.6,2.7 4.3,3.5c1.6,0.7 3.4,1.1 5.2,1.1c2.2,0 4.1,-0.4 5.8,-1.3c1.7,-0.9 3.2,-2.2 4.4,-3.8c1.2,-1.6 2.1,-3.6 2.7,-5.9c0.6,-2.3 0.9,-4.8 0.9,-7.7c0,-3.1 -0.3,-5.8 -0.9,-8.1c-0.7,-2.3 -1.6,-4.3 -2.7,-5.8zm-9.9,24.4c-0.9,0 -1.6,-0.3 -2.2,-0.8c-0.5,-0.4 -0.9,-1 -1.2,-1.8l8.1,-6.3c-0.1,1.3 -0.2,2.5 -0.4,3.5c-0.3,1.3 -0.7,2.4 -1.1,3.2c-0.4,0.7 -0.9,1.3 -1.5,1.7c-0.5,0.4 -1.1,0.5 -1.7,0.5zm-1.6,-20.2c0.5,-0.3 1.1,-0.5 1.7,-0.5c0.9,0 1.6,0.3 2.2,0.8c0.5,0.4 0.9,1.1 1.3,1.9l-8.2,6.3c0.1,-1.4 0.2,-2.6 0.4,-3.6c0.3,-1.3 0.7,-2.4 1.1,-3.2c0.4,-0.8 0.9,-1.4 1.5,-1.7z" class="st1"/>
  <polygon fill="#3a5765" id="svg_22" points="218.9,153.5 212.2,153.5 201,159.9 204,167.9 210,164.3 210,181.1 202.2,181.1 202.2,189.8    225.6,189.8 225.6,181.1 218.9,181.1  " class="st1"/>
  <polygon fill="#3a5765" id="svg_23" points="303.2,157.5 296.5,157.5 285.2,163.9 288.2,171.9 294.3,168.3 294.3,185.1 286.5,185.1 286.5,193.8    309.9,193.8 309.9,185.1 303.2,185.1  " class="st1"/>
  <path fill="#3a5765" id="svg_24" d="m265,127.8c-1.2,-1.6 -2.6,-2.7 -4.3,-3.5c-1.6,-0.7 -3.4,-1.1 -5.2,-1.1c-2.2,0 -4.1,0.4 -5.8,1.3c-1.7,0.9 -3.2,2.2 -4.4,3.8c-1.2,1.6 -2.1,3.6 -2.7,5.9c-0.6,2.3 -0.9,4.8 -0.9,7.7c0,3.1 0.3,5.8 0.9,8.1c0.6,2.3 1.5,4.3 2.7,5.8c1.2,1.6 2.6,2.7 4.3,3.5c1.6,0.7 3.4,1.1 5.2,1.1c2.2,0 4.1,-0.4 5.8,-1.3c1.7,-0.9 3.2,-2.2 4.4,-3.8c1.2,-1.6 2.1,-3.6 2.7,-5.9c0.6,-2.3 0.9,-4.8 0.9,-7.7c0,-3.1 -0.3,-5.8 -0.9,-8.1c-0.7,-2.3 -1.6,-4.2 -2.7,-5.8zm-9.8,24.5c-0.9,0 -1.6,-0.3 -2.2,-0.8c-0.5,-0.4 -0.9,-1 -1.2,-1.8l8.1,-6.3c-0.1,1.3 -0.2,2.5 -0.4,3.5c-0.3,1.3 -0.7,2.4 -1.1,3.2c-0.4,0.7 -0.9,1.3 -1.5,1.7c-0.6,0.3 -1.1,0.5 -1.7,0.5zm-1.7,-20.3c0.5,-0.3 1.1,-0.5 1.7,-0.5c0.9,0 1.6,0.3 2.2,0.8c0.5,0.4 0.9,1.1 1.3,1.9l-8.2,6.3c0.1,-1.4 0.2,-2.6 0.4,-3.6c0.3,-1.3 0.7,-2.4 1.1,-3.2c0.5,-0.8 1,-1.4 1.5,-1.7z" class="st1"/>
  <polygon fill="#3a5765" id="svg_25" points="449.2,188.2 449.2,160.6 442.5,160.6 431.3,167 434.3,175 440.3,171.4 440.3,188.2 432.5,188.2    432.5,196.9 455.9,196.9 455.9,188.2  " class="st1"/>
  <polygon fill="#3a5765" id="svg_26" points="410,188.2 410,160.6 403.3,160.6 392,167 395,175 401.1,171.4 401.1,188.2 393.3,188.2 393.3,196.9    416.7,196.9 416.7,188.2  " class="st1"/>
  <polygon fill="#3a5765" id="svg_27" points="120.9,188.2 120.9,160.6 114.3,160.6 103,167 106,175 112.1,171.4 112.1,188.2 104.3,188.2    104.3,196.9 127.7,196.9 127.7,188.2  " class="st1"/>
  <path fill="#3a5765" id="svg_28" d="m29.3,242c-1.2,-1.6 -2.6,-2.7 -4.3,-3.5c-1.6,-0.7 -3.4,-1.1 -5.2,-1.1c-2.2,0 -4.1,0.4 -5.8,1.3c-1.7,0.9 -3.2,2.2 -4.4,3.8c-1.2,1.6 -2.1,3.6 -2.7,5.9c-0.6,2.3 -0.9,4.8 -0.9,7.7c0,3.1 0.3,5.8 0.9,8.1c0.6,2.3 1.5,4.3 2.7,5.8c1.2,1.6 2.6,2.7 4.3,3.5c1.6,0.7 3.4,1.1 5.2,1.1c2.2,0 4.1,-0.4 5.8,-1.3c1.7,-0.9 3.2,-2.2 4.4,-3.8c1.2,-1.6 2.1,-3.6 2.7,-5.9c0.6,-2.3 0.9,-4.8 0.9,-7.7c0,-3.1 -0.3,-5.8 -0.9,-8.1c-0.7,-2.4 -1.6,-4.3 -2.7,-5.8zm-9.8,24.4c-0.9,0 -1.6,-0.3 -2.2,-0.8c-0.5,-0.4 -0.9,-1 -1.2,-1.8l8.1,-6.3c-0.1,1.3 -0.2,2.5 -0.4,3.5c-0.3,1.3 -0.7,2.4 -1.1,3.2c-0.4,0.7 -0.9,1.3 -1.5,1.7c-0.6,0.3 -1.1,0.5 -1.7,0.5zm-1.7,-20.3c0.5,-0.3 1.1,-0.5 1.7,-0.5c0.9,0 1.6,0.3 2.2,0.8c0.5,0.4 0.9,1.1 1.3,1.9l-8.2,6.3c0.1,-1.4 0.2,-2.6 0.4,-3.6c0.3,-1.3 0.7,-2.4 1.1,-3.2c0.5,-0.8 0.9,-1.3 1.5,-1.7z" class="st1"/>
  <path fill="#3a5765" id="svg_29" d="m79.1,242c-1.2,-1.6 -2.6,-2.7 -4.3,-3.5c-1.6,-0.7 -3.4,-1.1 -5.2,-1.1c-2.2,0 -4.1,0.4 -5.8,1.3c-1.7,0.9 -3.2,2.2 -4.4,3.8c-1.2,1.6 -2.1,3.6 -2.7,5.9c-0.6,2.3 -0.9,4.8 -0.9,7.7c0,3.1 0.3,5.8 0.9,8.1c0.6,2.3 1.5,4.3 2.7,5.8c1.2,1.6 2.6,2.7 4.3,3.5c1.6,0.7 3.4,1.1 5.2,1.1c2.2,0 4.1,-0.4 5.8,-1.3c1.7,-0.9 3.2,-2.2 4.4,-3.8c1.2,-1.6 2.1,-3.6 2.7,-5.9c0.6,-2.3 0.9,-4.8 0.9,-7.7c0,-3.1 -0.3,-5.8 -0.9,-8.1c-0.7,-2.4 -1.6,-4.3 -2.7,-5.8zm-9.9,24.4c-0.9,0 -1.6,-0.3 -2.2,-0.8c-0.5,-0.4 -0.9,-1 -1.2,-1.8l8.1,-6.3c-0.1,1.3 -0.2,2.5 -0.4,3.5c-0.3,1.3 -0.7,2.4 -1.1,3.2c-0.4,0.7 -0.9,1.3 -1.5,1.7c-0.5,0.3 -1.1,0.5 -1.7,0.5zm-1.6,-20.3c0.5,-0.3 1.1,-0.5 1.7,-0.5c0.9,0 1.6,0.3 2.2,0.8c0.5,0.4 0.9,1.1 1.3,1.9l-8.2,6.3c0.1,-1.4 0.2,-2.6 0.4,-3.6c0.3,-1.3 0.7,-2.4 1.1,-3.2c0.4,-0.8 0.9,-1.3 1.5,-1.7z" class="st1"/>
  <path fill="#3a5765" id="svg_30" d="m456.2,247.7c-0.6,-2.3 -1.5,-4.3 -2.7,-5.8c-1.2,-1.6 -2.6,-2.7 -4.3,-3.5c-1.6,-0.7 -3.4,-1.1 -5.2,-1.1c-2.2,0 -4.1,0.4 -5.8,1.3c-1.7,0.9 -3.2,2.2 -4.4,3.8c-1.2,1.6 -2.1,3.6 -2.7,5.9c-0.6,2.3 -0.9,4.8 -0.9,7.7c0,3.1 0.3,5.8 0.9,8.1c0.6,2.3 1.5,4.3 2.7,5.8c1.2,1.6 2.6,2.7 4.3,3.5c1.6,0.7 3.4,1.1 5.2,1.1c2.2,0 4.1,-0.4 5.8,-1.3c1.7,-0.9 3.2,-2.2 4.4,-3.8c1.2,-1.6 2.1,-3.6 2.7,-5.9c0.6,-2.3 0.9,-4.8 0.9,-7.7c0,-3.1 -0.3,-5.8 -0.9,-8.1zm-12.5,18.7c-0.9,0 -1.6,-0.3 -2.2,-0.8c-0.5,-0.4 -0.9,-1 -1.2,-1.8l8.1,-6.3c-0.1,1.3 -0.2,2.5 -0.4,3.5c-0.3,1.3 -0.7,2.4 -1.1,3.2c-0.4,0.7 -0.9,1.3 -1.5,1.7c-0.6,0.3 -1.1,0.5 -1.7,0.5zm-1.7,-20.3c0.5,-0.3 1.1,-0.5 1.7,-0.5c0.9,0 1.6,0.3 2.2,0.8c0.5,0.4 0.9,1.1 1.3,1.9l-8.2,6.3c0.1,-1.4 0.2,-2.6 0.4,-3.6c0.3,-1.3 0.7,-2.4 1.1,-3.2c0.5,-0.8 1,-1.3 1.5,-1.7z" class="st1"/>
  <polygon fill="#3a5765" id="svg_31" points="25,314.9 18.3,314.9 7.1,321.3 10.1,329.3 16.1,325.7 16.1,342.5 8.3,342.5 8.3,351.1 31.7,351.1    31.7,342.5 25,342.5  " class="st1"/>
  <path fill="#3a5765" id="svg_32" d="m79.1,319.1c-1.2,-1.6 -2.6,-2.7 -4.3,-3.5c-1.6,-0.7 -3.4,-1.1 -5.2,-1.1c-2.2,0 -4.1,0.4 -5.8,1.3c-1.7,0.9 -3.2,2.2 -4.4,3.8c-1.2,1.6 -2.1,3.6 -2.7,5.9c-0.6,2.3 -0.9,4.8 -0.9,7.7c0,3.1 0.3,5.8 0.9,8.1c0.6,2.3 1.5,4.3 2.7,5.8c1.2,1.6 2.6,2.7 4.3,3.5c1.6,0.7 3.4,1.1 5.2,1.1c2.2,0 4.1,-0.4 5.8,-1.3c1.7,-0.9 3.2,-2.2 4.4,-3.8c1.2,-1.6 2.1,-3.6 2.7,-5.9c0.6,-2.3 0.9,-4.8 0.9,-7.7c0,-3.1 -0.3,-5.8 -0.9,-8.1c-0.7,-2.3 -1.6,-4.3 -2.7,-5.8zm-9.9,24.4c-0.9,0 -1.6,-0.3 -2.2,-0.8c-0.5,-0.4 -0.9,-1 -1.2,-1.8l8.1,-6.3c-0.1,1.3 -0.2,2.5 -0.4,3.5c-0.3,1.3 -0.7,2.4 -1.1,3.2c-0.4,0.7 -0.9,1.3 -1.5,1.7c-0.5,0.3 -1.1,0.5 -1.7,0.5zm-1.6,-20.2c0.5,-0.3 1.1,-0.5 1.7,-0.5c0.9,0 1.6,0.3 2.2,0.8c0.5,0.4 0.9,1.1 1.3,1.9l-8.2,6.3c0.1,-1.4 0.2,-2.6 0.4,-3.6c0.3,-1.3 0.7,-2.4 1.1,-3.2c0.4,-0.9 0.9,-1.4 1.5,-1.7z" class="st1"/>
  <polygon fill="#3a5765" id="svg_33" points="449.2,342.5 449.2,314.9 442.5,314.9 431.3,321.3 434.3,329.3 440.3,325.7 440.3,342.5 432.5,342.5    432.5,351.1 455.9,351.1 455.9,342.5  " class="st1"/>
  <path fill="#3a5765" id="svg_34" d="m29.3,396.2c-1.2,-1.6 -2.6,-2.7 -4.3,-3.5c-1.6,-0.7 -3.4,-1.1 -5.2,-1.1c-2.2,0 -4.1,0.4 -5.8,1.3c-1.7,0.9 -3.2,2.2 -4.4,3.8c-1.2,1.6 -2.1,3.6 -2.7,5.9c-0.6,2.4 -0.9,5 -0.9,7.8c0,3.1 0.3,5.8 0.9,8.1c0.6,2.3 1.5,4.3 2.7,5.8c1.2,1.6 2.6,2.7 4.3,3.5c1.6,0.7 3.4,1.1 5.2,1.1c2.2,0 4.1,-0.4 5.8,-1.3c1.7,-0.9 3.2,-2.2 4.4,-3.8c1.2,-1.6 2.1,-3.6 2.7,-5.9c0.6,-2.3 0.9,-4.8 0.9,-7.7c0,-3.1 -0.3,-5.8 -0.9,-8.1c-0.7,-2.4 -1.6,-4.3 -2.7,-5.9zm-9.8,24.4c-0.9,0 -1.6,-0.3 -2.2,-0.8c-0.5,-0.4 -0.9,-1 -1.2,-1.8l8.1,-6.3c-0.1,1.3 -0.2,2.5 -0.4,3.5c-0.3,1.3 -0.7,2.4 -1.1,3.2c-0.4,0.7 -0.9,1.3 -1.5,1.7c-0.6,0.4 -1.1,0.5 -1.7,0.5zm-1.7,-20.2c0.5,-0.3 1.1,-0.5 1.7,-0.5c0.9,0 1.6,0.3 2.2,0.8c0.5,0.4 0.9,1.1 1.3,1.9l-8.2,6.3c0.1,-1.4 0.2,-2.6 0.4,-3.6c0.3,-1.3 0.7,-2.4 1.1,-3.2c0.5,-0.8 0.9,-1.4 1.5,-1.7z" class="st1"/>
  <path fill="#3a5765" id="svg_35" d="m79.1,396.2c-1.2,-1.6 -2.6,-2.7 -4.3,-3.5c-1.6,-0.7 -3.4,-1.1 -5.2,-1.1c-2.2,0 -4.1,0.4 -5.8,1.3c-1.7,0.9 -3.2,2.2 -4.4,3.8c-1.2,1.6 -2.1,3.6 -2.7,5.9c-0.6,2.3 -0.9,4.8 -0.9,7.7c0,3.1 0.3,5.8 0.9,8.1c0.6,2.3 1.5,4.3 2.7,5.8c1.2,1.6 2.6,2.7 4.3,3.5c1.6,0.7 3.4,1.1 5.2,1.1c2.2,0 4.1,-0.4 5.8,-1.3c1.7,-0.9 3.2,-2.2 4.4,-3.8c1.2,-1.6 2.1,-3.6 2.7,-5.9c0.6,-2.3 0.9,-4.8 0.9,-7.7c0,-3.1 -0.3,-5.8 -0.9,-8.1c-0.7,-2.3 -1.6,-4.2 -2.7,-5.8zm-9.9,24.4c-0.9,0 -1.6,-0.3 -2.2,-0.8c-0.5,-0.4 -0.9,-1 -1.2,-1.8l8.1,-6.3c-0.1,1.3 -0.2,2.5 -0.4,3.5c-0.3,1.3 -0.7,2.4 -1.1,3.2c-0.4,0.7 -0.9,1.3 -1.5,1.7c-0.5,0.4 -1.1,0.5 -1.7,0.5zm-1.6,-20.2c0.5,-0.3 1.1,-0.5 1.7,-0.5c0.9,0 1.6,0.3 2.2,0.8c0.5,0.4 0.9,1.1 1.3,1.9l-8.2,6.3c0.1,-1.4 0.2,-2.6 0.4,-3.6c0.3,-1.3 0.7,-2.4 1.1,-3.2c0.4,-0.8 0.9,-1.4 1.5,-1.7z" class="st1"/>
  <path fill="#3a5765" id="svg_36" d="m456.2,402c-0.6,-2.3 -1.5,-4.3 -2.7,-5.8c-1.2,-1.6 -2.6,-2.7 -4.3,-3.5c-1.6,-0.7 -3.4,-1.1 -5.2,-1.1c-2.2,0 -4.1,0.4 -5.8,1.3c-1.7,0.9 -3.2,2.2 -4.4,3.8c-1.2,1.6 -2.1,3.6 -2.7,5.9c-0.6,2.3 -0.9,4.8 -0.9,7.7c0,3.1 0.3,5.8 0.9,8.1c0.6,2.3 1.5,4.3 2.7,5.8c1.2,1.6 2.6,2.7 4.3,3.5c1.6,0.7 3.4,1.1 5.2,1.1c2.2,0 4.1,-0.4 5.8,-1.3c1.7,-0.9 3.2,-2.2 4.4,-3.8c1.2,-1.6 2.1,-3.6 2.7,-5.9c0.6,-2.3 0.9,-4.8 0.9,-7.7c0,-3.1 -0.3,-5.8 -0.9,-8.1zm-12.5,18.6c-0.9,0 -1.6,-0.3 -2.2,-0.8c-0.5,-0.4 -0.9,-1 -1.2,-1.8l8.1,-6.3c-0.1,1.3 -0.2,2.5 -0.4,3.5c-0.3,1.3 -0.7,2.4 -1.1,3.2c-0.4,0.7 -0.9,1.3 -1.5,1.7c-0.6,0.4 -1.1,0.5 -1.7,0.5zm-1.7,-20.2c0.5,-0.3 1.1,-0.5 1.7,-0.5c0.9,0 1.6,0.3 2.2,0.8c0.5,0.4 0.9,1.1 1.3,1.9l-8.2,6.3c0.1,-1.4 0.2,-2.6 0.4,-3.6c0.3,-1.3 0.7,-2.4 1.1,-3.2c0.5,-0.8 1,-1.4 1.5,-1.7z" class="st1"/>
  <polygon fill="#3a5765" id="svg_37" points="25,469.2 18.3,469.2 7.1,475.5 10.1,483.6 16.1,480 16.1,496.8 8.3,496.8 8.3,505.4 31.7,505.4    31.7,496.8 25,496.8  " class="st1"/>
  <path fill="#3a5765" id="svg_38" d="m79.1,473.4c-1.2,-1.6 -2.6,-2.7 -4.3,-3.5c-1.6,-0.7 -3.4,-1.1 -5.2,-1.1c-2.2,0 -4.1,0.4 -5.8,1.3c-1.7,0.9 -3.2,2.2 -4.4,3.8c-1.2,1.6 -2.1,3.6 -2.7,5.9c-0.6,2.3 -0.9,4.8 -0.9,7.7c0,3.1 0.3,5.8 0.9,8.1c0.6,2.3 1.5,4.3 2.7,5.8c1.2,1.6 2.6,2.7 4.3,3.5c1.6,0.7 3.4,1.1 5.2,1.1c2.2,0 4.1,-0.4 5.8,-1.3c1.7,-0.9 3.2,-2.2 4.4,-3.8c1.2,-1.6 2.1,-3.6 2.7,-5.9c0.6,-2.3 0.9,-4.8 0.9,-7.7c0,-3.1 -0.3,-5.8 -0.9,-8.1c-0.7,-2.4 -1.6,-4.3 -2.7,-5.8zm-9.9,24.4c-0.9,0 -1.6,-0.3 -2.2,-0.8c-0.5,-0.4 -0.9,-1 -1.2,-1.8l8.1,-6.3c-0.1,1.3 -0.2,2.5 -0.4,3.5c-0.3,1.3 -0.7,2.4 -1.1,3.2c-0.4,0.7 -0.9,1.3 -1.5,1.7c-0.5,0.3 -1.1,0.5 -1.7,0.5zm-1.6,-20.3c0.5,-0.3 1.1,-0.5 1.7,-0.5c0.9,0 1.6,0.3 2.2,0.8c0.5,0.4 0.9,1.1 1.3,1.9l-8.2,6.3c0.1,-1.4 0.2,-2.6 0.4,-3.6c0.3,-1.3 0.7,-2.4 1.1,-3.2c0.4,-0.8 0.9,-1.3 1.5,-1.7z" class="st1"/>
  <path fill="#3a5765" id="svg_39" d="m134.9,473.4c-1.2,-1.6 -2.6,-2.7 -4.3,-3.5c-1.6,-0.7 -3.4,-1.1 -5.2,-1.1c-2.2,0 -4.1,0.4 -5.8,1.3c-1.7,0.9 -3.2,2.2 -4.4,3.8c-1.2,1.6 -2.1,3.6 -2.7,5.9c-0.6,2.3 -0.9,4.8 -0.9,7.7c0,3.1 0.3,5.8 0.9,8.1c0.6,2.3 1.5,4.3 2.7,5.8c1.2,1.6 2.6,2.7 4.3,3.5c1.6,0.7 3.4,1.1 5.2,1.1c2.2,0 4.1,-0.4 5.8,-1.3c1.7,-0.9 3.2,-2.2 4.4,-3.8c1.2,-1.6 2.1,-3.6 2.7,-5.9c0.6,-2.3 0.9,-4.8 0.9,-7.7c0,-3.1 -0.3,-5.8 -0.9,-8.1c-0.7,-2.4 -1.6,-4.3 -2.7,-5.8zm-9.9,24.4c-0.9,0 -1.6,-0.3 -2.2,-0.8c-0.5,-0.4 -0.9,-1 -1.2,-1.8l8.1,-6.3c-0.1,1.3 -0.2,2.5 -0.4,3.5c-0.3,1.3 -0.7,2.4 -1.1,3.2c-0.4,0.7 -0.9,1.3 -1.5,1.7c-0.5,0.3 -1.1,0.5 -1.7,0.5zm-1.7,-20.3c0.5,-0.3 1.1,-0.5 1.7,-0.5c0.9,0 1.6,0.3 2.2,0.8c0.5,0.4 0.9,1.1 1.3,1.9l-8.2,6.3c0.1,-1.4 0.2,-2.6 0.4,-3.6c0.3,-1.3 0.7,-2.4 1.1,-3.2c0.5,-0.8 1,-1.3 1.5,-1.7z" class="st1"/>
  <polygon fill="#3a5765" id="svg_40" points="183.3,469.2 176.6,469.2 165.4,475.5 168.4,483.6 174.5,480 174.5,496.8 166.7,496.8 166.7,505.4    190,505.4 190,496.8 183.3,496.8  " class="st1"/>
  <path fill="#3a5765" id="svg_41" d="m240.4,473.4c-1.2,-1.6 -2.6,-2.7 -4.3,-3.5c-1.6,-0.7 -3.4,-1.1 -5.2,-1.1c-2.2,0 -4.1,0.4 -5.8,1.3c-1.7,0.9 -3.2,2.2 -4.4,3.8c-1.2,1.6 -2.1,3.6 -2.7,5.9c-0.6,2.3 -0.9,4.8 -0.9,7.7c0,3.1 0.3,5.8 0.9,8.1c0.6,2.3 1.5,4.3 2.7,5.8c1.2,1.6 2.6,2.7 4.3,3.5c1.6,0.7 3.4,1.1 5.2,1.1c2.2,0 4.1,-0.4 5.8,-1.3c1.7,-0.9 3.2,-2.2 4.4,-3.8c1.2,-1.6 2.1,-3.6 2.7,-5.9c0.6,-2.3 0.9,-4.8 0.9,-7.7c0,-3.1 -0.3,-5.8 -0.9,-8.1c-0.6,-2.4 -1.5,-4.3 -2.7,-5.8zm-9.8,24.4c-0.9,0 -1.6,-0.3 -2.2,-0.8c-0.5,-0.4 -0.9,-1 -1.2,-1.8l8.1,-6.3c-0.1,1.3 -0.2,2.5 -0.4,3.5c-0.3,1.3 -0.7,2.4 -1.1,3.2c-0.4,0.7 -0.9,1.3 -1.5,1.7c-0.6,0.3 -1.1,0.5 -1.7,0.5zm-1.7,-20.3c0.5,-0.3 1.1,-0.5 1.7,-0.5c0.9,0 1.6,0.3 2.2,0.8c0.5,0.4 0.9,1.1 1.3,1.9l-8.2,6.3c0.1,-1.4 0.2,-2.6 0.4,-3.6c0.3,-1.3 0.7,-2.4 1.1,-3.2c0.5,-0.8 1,-1.3 1.5,-1.7z" class="st1"/>
  <polygon fill="#3a5765" id="svg_42" points="288.9,469.2 282.2,469.2 270.9,475.5 274,483.6 280,480 280,496.8 272.2,496.8 272.2,505.4    295.6,505.4 295.6,496.8 288.9,496.8  " class="st1"/>
  <polygon fill="#3a5765" id="svg_43" points="341.7,469.2 335,469.2 323.7,475.5 326.7,483.6 332.8,480 332.8,496.8 325,496.8 325,505.4    348.4,505.4 348.4,496.8 341.7,496.8  " class="st1"/>
  <path fill="#3a5765" id="svg_44" d="m398.7,473.4c-1.2,-1.6 -2.6,-2.7 -4.3,-3.5c-1.6,-0.7 -3.4,-1.1 -5.2,-1.1c-2.2,0 -4.1,0.4 -5.8,1.3c-1.7,0.9 -3.2,2.2 -4.4,3.8c-1.2,1.6 -2.1,3.6 -2.7,5.9c-0.6,2.3 -0.9,4.8 -0.9,7.7c0,3.1 0.3,5.8 0.9,8.1c0.6,2.3 1.5,4.3 2.7,5.8c1.2,1.6 2.6,2.7 4.3,3.5c1.6,0.7 3.4,1.1 5.2,1.1c2.2,0 4.1,-0.4 5.8,-1.3c1.7,-0.9 3.2,-2.2 4.4,-3.8c1.2,-1.6 2.1,-3.6 2.7,-5.9c0.6,-2.3 0.9,-4.8 0.9,-7.7c0,-3.1 -0.3,-5.8 -0.9,-8.1c-0.6,-2.4 -1.5,-4.3 -2.7,-5.8zm-9.8,24.4c-0.9,0 -1.6,-0.3 -2.2,-0.8c-0.5,-0.4 -0.9,-1 -1.2,-1.8l8.1,-6.3c-0.1,1.3 -0.2,2.5 -0.4,3.5c-0.3,1.3 -0.7,2.4 -1.1,3.2c-0.4,0.7 -0.9,1.3 -1.5,1.7c-0.5,0.3 -1.1,0.5 -1.7,0.5zm-1.7,-20.3c0.5,-0.3 1.1,-0.5 1.7,-0.5c0.9,0 1.6,0.3 2.2,0.8c0.5,0.4 0.9,1.1 1.3,1.9l-8.2,6.3c0.1,-1.4 0.2,-2.6 0.4,-3.6c0.3,-1.3 0.7,-2.4 1.1,-3.2c0.5,-0.8 1,-1.3 1.5,-1.7z" class="st1"/>
  <polygon fill="#3a5765" id="svg_45" points="449.2,496.8 449.2,469.2 442.5,469.2 431.3,475.5 434.3,483.6 440.3,480 440.3,496.8 432.5,496.8    432.5,505.4 455.9,505.4 455.9,496.8  " class="st1"/>
  <polygon fill="#3a5765" id="svg_46" points="498.1,33.9 498.1,6.4 491.4,6.4 480.2,12.7 483.2,20.7 489.2,17.2 489.2,33.9 481.4,33.9 481.4,42.6    504.8,42.6 504.8,33.9  " class="st1"/>
  <path fill="#3a5765" id="svg_47" d="m505.1,94.5c-0.6,-2.3 -1.5,-4.3 -2.7,-5.8c-1.2,-1.6 -2.6,-2.7 -4.3,-3.5c-1.6,-0.7 -3.4,-1.1 -5.2,-1.1c-2.2,0 -4.1,0.4 -5.8,1.3c-1.7,0.9 -3.2,2.2 -4.4,3.8c-1.2,1.6 -2.1,3.6 -2.7,5.9c-0.6,2.3 -0.9,4.8 -0.9,7.7c0,3.1 0.3,5.8 0.9,8.1c0.6,2.3 1.5,4.3 2.7,5.8c1.2,1.6 2.6,2.7 4.3,3.5c1.6,0.7 3.4,1.1 5.2,1.1c2.2,0 4.1,-0.4 5.8,-1.3c1.7,-0.9 3.2,-2.2 4.4,-3.8c1.2,-1.6 2.1,-3.6 2.7,-5.9c0.6,-2.3 0.9,-4.8 0.9,-7.7c0,-3.1 -0.3,-5.9 -0.9,-8.1zm-12.6,18.6c-0.9,0 -1.6,-0.3 -2.2,-0.8c-0.5,-0.4 -0.9,-1 -1.2,-1.8l8.1,-6.3c-0.1,1.3 -0.2,2.5 -0.4,3.5c-0.3,1.3 -0.7,2.4 -1.1,3.2c-0.4,0.7 -0.9,1.3 -1.5,1.7c-0.5,0.3 -1,0.5 -1.7,0.5zm-1.6,-20.3c0.5,-0.3 1.1,-0.5 1.7,-0.5c0.9,0 1.6,0.3 2.2,0.8c0.5,0.4 0.9,1.1 1.3,1.9l-8.2,6.3c0.1,-1.4 0.2,-2.6 0.4,-3.6c0.3,-1.3 0.7,-2.4 1.1,-3.2c0.5,-0.8 0.9,-1.3 1.5,-1.7z" class="st1"/>
  <polygon fill="#3a5765" id="svg_48" points="498.1,188.2 498.1,160.6 491.4,160.6 480.2,167 483.2,175 489.2,171.4 489.2,188.2 481.4,188.2    481.4,196.9 504.8,196.9 504.8,188.2  " class="st1"/>
  <path fill="#3a5765" id="svg_49" d="m505.1,247.7c-0.6,-2.3 -1.5,-4.3 -2.7,-5.8c-1.2,-1.6 -2.6,-2.7 -4.3,-3.5c-1.6,-0.7 -3.4,-1.1 -5.2,-1.1c-2.2,0 -4.1,0.4 -5.8,1.3c-1.7,0.9 -3.2,2.2 -4.4,3.8c-1.2,1.6 -2.1,3.6 -2.7,5.9c-0.6,2.3 -0.9,4.8 -0.9,7.7c0,3.1 0.3,5.8 0.9,8.1c0.6,2.3 1.5,4.3 2.7,5.8c1.2,1.6 2.6,2.7 4.3,3.5c1.6,0.7 3.4,1.1 5.2,1.1c2.2,0 4.1,-0.4 5.8,-1.3c1.7,-0.9 3.2,-2.2 4.4,-3.8c1.2,-1.6 2.1,-3.6 2.7,-5.9c0.6,-2.3 0.9,-4.8 0.9,-7.7c0,-3.1 -0.3,-5.8 -0.9,-8.1zm-12.6,18.7c-0.9,0 -1.6,-0.3 -2.2,-0.8c-0.5,-0.4 -0.9,-1 -1.2,-1.8l8.1,-6.3c-0.1,1.3 -0.2,2.5 -0.4,3.5c-0.3,1.3 -0.7,2.4 -1.1,3.2c-0.4,0.7 -0.9,1.3 -1.5,1.7c-0.5,0.3 -1,0.5 -1.7,0.5zm-1.6,-20.3c0.5,-0.3 1.1,-0.5 1.7,-0.5c0.9,0 1.6,0.3 2.2,0.8c0.5,0.4 0.9,1.1 1.3,1.9l-8.2,6.3c0.1,-1.4 0.2,-2.6 0.4,-3.6c0.3,-1.3 0.7,-2.4 1.1,-3.2c0.5,-0.8 0.9,-1.3 1.5,-1.7z" class="st1"/>
  <polygon fill="#3a5765" id="svg_50" points="498.1,342.5 498.1,314.9 491.4,314.9 480.2,321.3 483.2,329.3 489.2,325.7 489.2,342.5 481.4,342.5    481.4,351.1 504.8,351.1 504.8,342.5  " class="st1"/>
  <path fill="#3a5765" id="svg_51" d="m505.1,402c-0.6,-2.3 -1.5,-4.3 -2.7,-5.8c-1.2,-1.6 -2.6,-2.7 -4.3,-3.5c-1.6,-0.7 -3.4,-1.1 -5.2,-1.1c-2.2,0 -4.1,0.4 -5.8,1.3c-1.7,0.9 -3.2,2.2 -4.4,3.8c-1.2,1.6 -2.1,3.6 -2.7,5.9c-0.6,2.3 -0.9,4.8 -0.9,7.7c0,3.1 0.3,5.8 0.9,8.1c0.6,2.3 1.5,4.3 2.7,5.8c1.2,1.6 2.6,2.7 4.3,3.5c1.6,0.7 3.4,1.1 5.2,1.1c2.2,0 4.1,-0.4 5.8,-1.3c1.7,-0.9 3.2,-2.2 4.4,-3.8c1.2,-1.6 2.1,-3.6 2.7,-5.9c0.6,-2.3 0.9,-4.8 0.9,-7.7c0,-3.1 -0.3,-5.8 -0.9,-8.1zm-12.6,18.6c-0.9,0 -1.6,-0.3 -2.2,-0.8c-0.5,-0.4 -0.9,-1 -1.2,-1.8l8.1,-6.3c-0.1,1.3 -0.2,2.5 -0.4,3.5c-0.3,1.3 -0.7,2.4 -1.1,3.2c-0.4,0.7 -0.9,1.3 -1.5,1.7c-0.5,0.4 -1,0.5 -1.7,0.5zm-1.6,-20.2c0.5,-0.3 1.1,-0.5 1.7,-0.5c0.9,0 1.6,0.3 2.2,0.8c0.5,0.4 0.9,1.1 1.3,1.9l-8.2,6.3c0.1,-1.4 0.2,-2.6 0.4,-3.6c0.3,-1.3 0.7,-2.4 1.1,-3.2c0.5,-0.8 0.9,-1.4 1.5,-1.7z" class="st1"/>
  <polygon fill="#3a5765" id="svg_52" points="498.1,496.8 498.1,469.2 491.4,469.2 480.2,475.5 483.2,483.6 489.2,480 489.2,496.8 481.4,496.8    481.4,505.4 504.8,505.4 504.8,496.8  " class="st1"/>
 </g>
</svg>